<?xml version="1.0" standalone="no"?>
<!DOCTYPE svg PUBLIC "-//W3C//DTD SVG 20010904//EN"
 "http://www.w3.org/TR/2001/REC-SVG-20010904/DTD/svg10.dtd">
<svg version="1.0" xmlns="http://www.w3.org/2000/svg"
 width="480.000000pt" height="480.000000pt" viewBox="0 0 480.000000 480.000000"
 preserveAspectRatio="xMidYMid meet">

<g transform="translate(0.000000,480.000000) scale(0.100000,-0.100000)"
fill="#000000" stroke="none">
<path d="M0 2441 c0 -2239 1 -2360 17 -2365 10 -3 52 -5 93 -4 91 1 490 -10
615 -17 50 -3 227 -8 394 -11 167 -3 344 -7 395 -10 50 -3 172 -10 271 -16
102 -6 790 -12 1598 -14 l1417 -4 0 2400 0 2400 -2400 0 -2400 0 0 -2359z
m1927 2018 c11 -11 5 -59 -8 -59 -5 0 -6 7 -3 15 4 8 3 22 0 31 -6 14 -9 14
-26 -6 -21 -25 -37 -21 -26 5 3 9 10 13 16 10 5 -3 10 -1 10 4 0 14 23 14 37
0z m-71 -64 c-6 -17 9 -21 19 -5 3 6 11 10 17 10 6 0 1 -11 -12 -25 -20 -21
-23 -38 -30 -152 l-7 -128 -2 105 c-3 105 -7 106 -27 5 -4 -22 -9 -33 -11 -24
-6 24 42 229 53 229 4 0 4 -7 0 -15z m429 -30 c50 -3 119 -8 155 -10 36 -2 79
-4 95 -4 33 0 482 -25 725 -41 85 -5 202 -12 260 -15 179 -10 183 -15 181
-200 -1 -148 -10 -242 -23 -267 -5 -10 -21 -24 -36 -32 -25 -13 -40 -12 -128
5 -251 48 -565 78 -839 80 -104 1 -201 4 -215 8 -39 12 604 4 705 -8 169 -20
230 -29 333 -47 93 -17 106 -17 130 -3 32 18 39 61 43 262 2 106 -1 131 -14
144 -11 11 -47 19 -119 24 -136 12 -637 46 -863 60 -99 6 -240 16 -313 23
-158 14 -235 8 -257 -20 -10 -14 -14 -47 -15 -116 0 -80 -3 -98 -15 -98 -24 0
-21 196 3 228 18 23 71 41 102 36 8 -2 56 -6 105 -9z m1507 -20 c0 -5 -5 -11
-11 -13 -6 -2 -11 4 -11 13 0 9 5 15 11 13 6 -2 11 -8 11 -13z m-874 -130 c3
-3 -16 -5 -41 -5 -40 0 -47 -3 -47 -20 0 -15 7 -20 26 -20 14 0 23 -4 19 -10
-3 -5 -15 -10 -26 -10 -12 0 -19 -7 -19 -20 0 -17 7 -20 40 -20 22 0 40 -4 40
-10 0 -14 -74 -12 -88 2 -15 15 -16 100 -1 115 10 10 87 9 97 -2z m-688 -67
l-5 -73 -3 59 c-3 52 1 86 10 86 2 0 1 -33 -2 -72z m182 43 c-13 -24 -14 -34
-4 -55 19 -42 82 -30 82 16 0 10 5 18 10 18 6 0 5 -13 -3 -32 -10 -24 -21 -34
-41 -36 -55 -7 -87 58 -49 100 23 26 25 22 5 -11z m287 -23 l-3 -53 34 -6 35
-6 -37 -2 c-20 0 -40 3 -43 9 -6 10 5 110 12 110 2 0 3 -24 2 -52z m-131 -12
c-3 -40 -2 -41 32 -48 l35 -6 -40 1 -40 2 0 52 c0 28 4 49 8 46 5 -3 7 -24 5
-47z m428 -64 c-14 -13 -18 12 -10 65 l9 58 3 -59 c2 -32 1 -61 -2 -64z m-670
62 c-9 -8 -11 -9 -6 -2 6 7 11 21 11 33 1 18 2 18 6 1 3 -10 -2 -25 -11 -32z
m844 37 c0 -6 -19 -9 -41 -8 -33 2 -42 -2 -44 -15 -2 -12 3 -18 15 -18 10 0
22 -4 25 -10 3 -6 -5 -10 -19 -10 -19 0 -26 -6 -29 -27 -2 -16 -5 0 -6 35 l-1
62 50 0 c28 0 50 -4 50 -9z m83 -121 c12 0 29 -5 37 -10 12 -8 10 -10 -10 -10
-61 0 -70 9 -70 64 0 72 14 81 18 12 3 -50 5 -56 25 -56z m173 90 c8 0 14 -5
14 -10 0 -6 -15 -8 -40 -4 -36 6 -40 4 -40 -14 0 -12 9 -23 23 -27 l22 -8 -22
-4 c-14 -3 -23 -12 -23 -23 0 -14 10 -20 41 -25 55 -9 41 -19 -16 -11 l-45 7
0 58 c0 32 3 61 7 65 5 4 21 5 37 2 16 -3 35 -6 42 -6z m-1129 -26 c-3 -3 -12
-4 -19 -1 -8 3 -5 6 6 6 11 1 17 -2 13 -5z m1264 -28 c16 15 19 15 19 2 0 -9
-7 -21 -15 -28 -13 -11 -13 -15 0 -33 24 -34 18 -56 -6 -24 l-21 28 -44 -41
c-24 -22 -49 -38 -56 -35 -7 2 -80 14 -163 25 -82 11 -177 25 -211 31 -34 6
-200 14 -370 18 l-309 8 250 1 c297 2 547 -17 769 -59 l48 -9 38 43 c36 39 37
44 24 64 -22 35 -16 51 7 20 20 -27 22 -27 40 -11z m-1242 -31 c0 -5 -6 -1
-14 9 -8 11 -15 24 -15 30 0 5 7 1 15 -10 8 -10 14 -23 14 -29z m-238 -32 c-1
-23 -7 -43 -11 -43 -5 0 -11 -12 -13 -27 -2 -16 -5 -4 -6 25 0 32 3 52 10 52
6 0 9 8 7 18 -3 10 0 19 6 19 7 0 10 -16 7 -44z m-398 13 c10 -15 -3 -89 -17
-98 -21 -14 -30 -8 -10 7 18 14 18 14 -3 9 -15 -4 -23 -1 -26 13 -3 13 -5 12
-6 -7 -1 -18 -4 -21 -10 -11 -7 10 -11 5 -16 -18 -3 -17 -13 -31 -21 -31 -18
0 -20 97 -2 135 11 24 15 25 57 19 25 -4 49 -12 54 -18z m435 -171 c21 -9 30
-25 15 -25 -27 1 -64 55 -62 92 1 16 5 12 13 -17 7 -24 21 -44 34 -50z m873
67 c-7 -2 -18 1 -23 6 -8 8 -4 9 13 5 13 -4 18 -8 10 -11z m-1151 -29 c0 -36
-10 -41 -34 -17 -15 14 -16 14 -17 -3 0 -16 -1 -16 -8 2 -14 34 1 50 47 51 7
1 12 -12 12 -33z m-425 -2 c13 -5 -7 -10 -60 -13 -88 -6 -127 3 -55 13 65 9
92 9 115 0z m305 -31 c-14 -26 -26 -417 -35 -1145 -4 -275 -8 -506 -10 -512
-2 -7 -5 -177 -5 -378 -1 -201 -6 -377 -10 -393 -5 -15 -7 73 -4 208 2 129 6
465 9 745 6 622 13 1040 21 1242 6 159 2 182 -22 162 -10 -8 -14 -8 -14 0 0 6
-6 11 -12 11 -9 0 -13 -22 -14 -70 -2 -92 -20 -120 -74 -120 -21 0 -42 -5 -46
-11 -3 -6 -12 -68 -19 -137 -7 -70 -13 -106 -14 -81 0 25 8 126 19 225 14 131
24 182 35 190 8 6 15 19 15 29 0 14 -3 15 -14 6 -10 -9 -16 -9 -21 -1 -4 6 -4
14 -1 17 8 8 55 8 91 -1 20 -4 25 -3 16 3 -10 6 4 13 50 24 35 8 65 13 67 11
2 -1 -2 -12 -8 -24z m2107 -32 c-2 -13 -4 -5 -4 17 -1 22 1 32 4 23 2 -10 2
-28 0 -40z m-2412 21 c11 0 33 -5 49 -11 l28 -11 -6 -86 c-8 -108 -34 -341
-45 -401 -8 -42 -8 -41 -9 27 0 40 -5 79 -10 88 -8 15 -10 15 -21 1 -11 -13
-11 -17 2 -22 20 -7 10 -35 -11 -32 -10 2 -19 -10 -26 -35 -6 -22 -14 -35 -18
-31 -5 4 -8 -1 -8 -11 0 -14 -3 -15 -15 -5 -31 26 -1 178 33 165 10 -4 12 9
10 53 -3 56 -3 57 -35 60 l-33 3 0 64 c0 36 -5 67 -11 71 -7 4 -9 0 -5 -14 10
-30 -13 -112 -31 -112 -9 0 -13 -6 -9 -15 7 -20 -18 -20 -34 0 -7 8 -10 26 -8
39 4 18 1 22 -12 19 -12 -3 -15 -12 -12 -32 2 -18 -1 -30 -10 -34 -21 -8 -42
73 -31 120 7 31 14 38 42 45 18 5 45 22 60 37 14 16 37 31 51 33 14 3 32 8 40
10 8 3 12 3 8 1 -12 -7 -9 -33 3 -33 5 0 8 4 5 9 -3 5 1 11 9 15 9 3 12 12 8
22 -5 14 -3 16 13 9 10 -4 28 -7 39 -6z m767 -11 c-9 -9 -15 -9 -24 0 -9 9 -7
12 12 12 19 0 21 -3 12 -12z m1582 -45 c-5 -28 -20 -51 -27 -42 -5 5 21 69 27
69 3 0 2 -12 0 -27z m66 -19 c0 -8 -27 -34 -36 -34 -3 0 -1 6 5 13 6 8 8 17 4
20 -3 4 1 7 10 7 10 0 17 -3 17 -6z m-720 -60 c63 -8 122 -18 130 -21 8 -3 19
-5 24 -4 16 4 251 -52 261 -62 6 -6 3 -7 -10 -3 -48 14 -261 46 -380 56 -77 7
-219 10 -354 7 -218 -5 -226 -4 -243 16 l-18 20 0 -22 c0 -12 -6 -21 -12 -20
-40 5 -89 -3 -102 -17 -15 -14 -16 -14 -16 1 0 13 -8 15 -44 10 -27 -3 -48 -1
-51 6 -10 15 -4 18 61 30 162 31 535 32 754 3z m-840 -36 c0 -17 -3 -19 -9 -9
-7 10 -19 12 -47 6 -22 -5 -52 -9 -69 -11 -16 -1 -31 -7 -33 -13 -5 -16 -22
-13 -22 4 0 8 8 15 18 16 14 0 150 25 160 28 1 1 2 -9 2 -21z m-23 -14 c-3 -3
-12 -4 -19 -1 -8 3 -5 6 6 6 11 1 17 -2 13 -5z m-174 -11 c-10 -3 -10 -8 1
-19 8 -8 19 -14 25 -14 6 0 11 -4 11 -8 0 -13 -43 -7 -48 6 -2 7 -10 12 -18
12 -15 0 -19 12 -7 23 3 4 16 7 27 6 12 0 15 -3 9 -6z m1177 -14 c104 -10 290
-43 394 -70 70 -18 286 -88 307 -100 51 -27 54 -81 29 -619 -5 -124 -10 -257
-10 -297 0 -66 1 -71 20 -66 11 3 20 0 20 -6 0 -6 -12 -11 -27 -11 -30 0 -22
-15 12 -23 11 -2 8 -3 -7 -2 l-28 2 0 -72 0 -71 36 4 c26 3 35 1 30 -7 -4 -7
-15 -9 -24 -7 -36 11 -42 -7 -49 -143 -4 -88 -10 -130 -17 -128 -7 2 -10 26
-7 63 2 32 3 95 2 139 -2 144 0 180 12 188 9 6 9 10 1 13 -13 5 -10 173 3 183
11 8 16 41 6 41 -9 0 -6 276 3 300 3 8 5 59 4 113 -1 68 2 97 10 97 7 0 9 7 5
17 -3 10 -6 65 -6 123 l1 104 -40 38 c-21 21 -43 38 -47 38 -4 0 -1 -5 7 -10
13 -8 13 -10 -2 -10 -28 0 -48 11 -41 24 4 8 2 8 -7 -1 -9 -8 -20 -9 -39 -1
-88 35 -143 51 -173 50 -18 0 -26 3 -22 10 4 7 2 8 -5 4 -6 -4 -17 -3 -24 2
-7 5 -52 17 -102 27 -49 10 -98 22 -108 27 -17 9 -17 7 -7 -12 6 -12 9 -24 6
-27 -8 -8 -26 7 -26 21 0 17 -36 22 -250 37 -211 15 -511 -1 -685 -36 -122
-24 -145 -27 -145 -15 0 16 -52 0 -73 -22 -10 -10 -22 -16 -27 -13 -5 3 -11 1
-15 -4 -3 -6 -12 -8 -20 -5 -21 8 -82 -42 -94 -77 -6 -17 -8 -56 -5 -87 4 -39
1 -71 -10 -102 -18 -51 -21 -104 -6 -95 6 3 10 2 10 -4 0 -5 -6 -12 -12 -15
-10 -5 -10 -7 0 -12 21 -10 15 -97 -8 -116 -19 -17 -19 -16 -17 53 2 39 -1 73
-5 75 -4 3 -8 -33 -8 -80 0 -46 4 -86 9 -88 6 -1 11 -31 12 -65 1 -34 6 -60
11 -57 4 3 8 -44 8 -105 0 -69 -4 -112 -11 -117 -7 -4 -10 -42 -9 -103 1 -53
1 -98 0 -101 -7 -19 -10 -84 -16 -404 -4 -229 -10 -366 -17 -374 -7 -9 -7 -16
-1 -20 5 -4 11 -19 12 -33 1 -25 0 -26 -23 -15 -23 10 -25 16 -25 92 0 45 3
97 7 115 l7 34 12 -40 12 -40 1 65 c0 60 -1 63 -15 45 -14 -19 -15 -19 -14 10
0 17 0 118 0 225 -1 176 4 362 15 615 3 50 7 227 10 395 6 290 16 400 36 400
5 0 9 7 9 15 0 24 44 46 80 40 17 -3 29 -2 26 3 -3 5 9 8 27 8 18 0 88 12 157
26 180 37 286 50 450 57 179 8 359 5 510 -10z m-1250 -4 c0 -9 -9 -15 -22 -15
-21 0 -21 0 -2 15 24 18 24 18 24 0z m-62 -42 c-1 -19 -14 -40 -41 -64 -37
-33 -41 -41 -45 -98 -2 -33 -9 -61 -14 -61 -5 0 -5 -8 -1 -17 5 -10 6 -166 2
-348 -4 -181 -10 -510 -13 -730 -7 -359 -15 -479 -34 -460 -5 5 -8 84 -11 343
-1 36 -5 51 -12 46 -8 -4 -9 1 -4 15 4 12 2 28 -5 36 -16 20 -20 105 -4 105 8
0 11 6 7 16 -5 13 -7 13 -14 2 -6 -8 -9 2 -9 30 0 23 5 42 10 42 12 0 14 46 3
53 -5 2 -3 3 3 1 13 -3 9 119 -4 124 -6 2 -6 17 -2 37 4 19 4 33 0 30 -11 -7
-7 49 4 57 6 4 6 11 0 20 -6 7 -9 42 -7 78 1 36 4 193 5 350 l3 285 28 48 c27
45 53 66 40 30 -4 -11 -3 -14 6 -9 6 4 9 16 6 27 -5 13 -2 19 10 19 12 0 15
-6 10 -20 -7 -23 7 -27 24 -6 8 10 9 16 1 21 -18 11 -1 25 30 25 26 0 30 -3
28 -27z m312 7 c-20 -13 -43 -13 -35 0 3 6 16 10 28 10 18 0 19 -2 7 -10z
m550 -30 c0 -6 -16 -20 -35 -32 -20 -11 -34 -23 -31 -26 3 -3 14 1 23 9 10 7
7 0 -7 -16 -39 -46 -44 -50 -60 -51 -8 -1 -23 -5 -32 -9 -25 -10 -23 12 2 27
11 7 20 17 20 22 0 13 69 70 94 78 11 3 22 6 24 7 1 1 2 -4 2 -9z m-1599 -77
c-3 -94 -11 -93 -11 2 0 43 3 75 7 72 3 -4 5 -37 4 -74z m1662 70 c4 -3 -12
-20 -36 -37 -23 -17 -50 -41 -61 -54 -10 -13 -21 -21 -23 -18 -6 5 3 16 65 79
38 38 44 42 55 30z m390 -73 c44 -7 69 -18 97 -42 20 -18 66 -49 100 -68 109
-61 213 -194 256 -327 10 -30 19 -115 24 -223 8 -163 7 -178 -12 -229 -22 -57
-61 -129 -99 -180 -19 -25 -20 -34 -10 -62 14 -40 14 -39 -3 -39 -8 0 -31 -9
-50 -21 -20 -12 -36 -18 -36 -15 0 3 -11 -6 -25 -20 -14 -14 -25 -29 -25 -34
0 -6 -4 -10 -10 -10 -5 0 -10 5 -10 12 0 6 -2 9 -5 6 -3 -3 -1 -18 5 -33 10
-25 9 -27 -6 -14 -27 23 -44 19 -45 -9 -1 -21 -2 -23 -6 -7 -6 25 -23 44 -23
25 0 -9 -6 -8 -22 6 -12 10 -19 15 -16 9 3 -5 -3 -19 -13 -29 -18 -19 -25 -12
-20 18 1 5 -6 6 -16 2 -16 -5 -15 -4 1 9 11 8 27 15 35 15 9 1 27 8 41 16 l25
15 -25 -6 c-14 -4 -59 -16 -100 -28 -69 -18 -83 -19 -175 -8 -107 14 -179 38
-235 82 -19 15 -54 32 -78 38 -54 15 -105 77 -164 204 -42 87 -44 96 -43 175
1 45 -2 85 -6 88 -5 3 -10 -1 -10 -8 -1 -7 -5 5 -9 27 -4 22 -6 60 -4 85 4 48
34 172 44 180 3 3 11 18 18 33 7 15 17 25 22 22 6 -3 10 2 10 12 0 10 5 25 11
33 8 11 9 9 3 -10 l-6 -25 19 25 c43 55 66 93 52 85 -7 -5 2 8 21 28 34 35 63
54 183 117 32 17 60 37 63 45 14 35 164 54 277 35z m-1145 -60 c-7 -11 -16
-20 -20 -20 -5 0 -3 9 4 20 7 11 16 20 20 20 5 0 3 -9 -4 -20z m577 -38 l-49
-47 44 51 c25 27 47 49 50 47 2 -2 -18 -25 -45 -51z m1005 18 c0 -5 -2 -10 -4
-10 -3 0 -8 5 -11 10 -3 6 -1 10 4 10 6 0 11 -4 11 -10z m50 -82 c0 -9 3 -9
12 0 19 19 44 14 77 -13 44 -38 57 -86 37 -140 -10 -24 -29 -51 -43 -60 -21
-14 -25 -15 -20 -3 4 11 -1 14 -20 10 -33 -6 -90 24 -97 52 -3 11 -6 34 -6 50
0 24 -2 27 -15 16 -20 -17 -20 1 1 45 19 40 74 72 74 43z m-1244 -211 c-21
-52 -48 -165 -56 -242 -7 -67 -7 -68 -9 -18 -1 66 22 190 48 248 23 51 38 62
17 12z m1264 -17 c13 -9 13 -10 0 -9 -8 0 -24 4 -35 9 l-20 9 20 0 c11 0 27
-4 35 -9z m-2173 -155 c9 -34 10 -60 3 -85 -5 -19 -14 -54 -20 -77 -8 -32 -16
-43 -30 -43 -41 0 -47 169 -8 243 17 32 42 15 55 -38z m-400 -2 c-3 -10 -5 -2
-5 17 0 19 2 27 5 18 2 -10 2 -26 0 -35z m833 -7 c0 -3 -4 -8 -10 -11 -5 -3
-10 -1 -10 4 0 6 5 11 10 11 6 0 10 -2 10 -4z m-644 -221 c24 -16 57 -88 79
-172 60 -230 60 -710 0 -938 -22 -81 -60 -145 -87 -145 -25 0 -58 27 -58 47 0
16 5 16 31 2 34 -18 63 11 87 85 40 120 52 226 52 440 0 592 -149 864 -230
420 -11 -59 -19 -128 -19 -153 1 -35 6 -20 19 62 29 174 63 247 109 232 65
-20 120 -317 108 -590 -11 -265 -67 -447 -128 -414 -22 12 -14 39 12 39 45 0
87 135 91 298 7 273 -21 528 -66 596 -35 54 -84 -13 -105 -145 -13 -79 -13
-82 -1 -74 6 3 10 1 10 -6 0 -26 41 43 42 71 1 34 9 37 30 13 40 -49 64 -203
54 -353 -11 -159 -46 -235 -46 -99 0 56 -11 62 -54 28 -28 -22 -35 -59 -11
-59 13 0 12 -5 -2 -35 -16 -34 -36 -48 -32 -22 4 19 -11 72 -32 116 -10 22
-19 48 -19 58 1 17 2 17 15 -1 8 -11 15 -30 15 -42 0 -23 16 -41 27 -31 7 8
-17 79 -33 97 -7 9 -20 40 -28 70 l-15 55 0 -42 c-1 -24 -5 -43 -10 -43 -13 0
-14 367 -1 375 6 4 10 -31 10 -95 0 -77 3 -101 13 -98 7 3 15 35 19 83 20 214
76 382 128 385 3 0 15 -7 26 -15z m-189 -117 c-2 -24 -4 -7 -4 37 0 44 2 63 4
43 2 -21 2 -57 0 -80z m358 -20 c5 -18 9 -40 10 -48 1 -8 6 -35 10 -60 7 -43
6 -44 -10 -25 -16 19 -16 18 -10 -20 3 -22 7 -119 10 -215 l4 -175 -14 155
c-28 303 -28 504 0 388z m-358 -80 c-3 -8 -6 -5 -6 6 -1 11 2 17 5 13 3 -3 4
-12 1 -19z m2813 12 c0 -5 -4 -10 -10 -10 -5 0 -10 5 -10 10 0 6 5 10 10 10 6
0 10 -4 10 -10z m-1484 -135 c-4 -14 -10 -25 -15 -25 -5 0 -4 16 2 36 12 39
23 29 13 -11z m1504 35 c0 -5 -11 -10 -25 -10 -14 0 -25 5 -25 10 0 6 11 10
25 10 14 0 25 -4 25 -10z m-2373 -42 c-3 -8 -6 -5 -6 6 -1 11 2 17 5 13 3 -3
4 -12 1 -19z m2383 12 c0 -5 -14 -10 -31 -10 -17 0 -28 4 -24 10 3 6 17 10 31
10 13 0 24 -4 24 -10z m0 -40 c0 -5 -13 -10 -30 -10 -16 0 -30 5 -30 10 0 6
14 10 30 10 17 0 30 -4 30 -10z m-1490 -44 c14 -3 26 -5 28 -5 1 -1 5 -1 8 0
4 0 11 -5 15 -13 7 -10 9 -10 9 1 0 8 13 -5 30 -30 16 -24 39 -55 50 -69 22
-28 47 -113 42 -147 -2 -12 -9 -24 -17 -27 -10 -4 -16 8 -20 42 -8 61 -17 82
-53 124 -17 19 -30 42 -29 52 2 22 -19 29 -90 29 -31 0 -61 -6 -77 -17 -14 -9
-26 -13 -26 -10 0 8 -45 -40 -72 -77 -15 -19 -21 -38 -17 -51 0 -2 -4 -15 -10
-30 -10 -27 2 -41 12 -15 4 9 6 9 6 0 1 -6 -3 -15 -9 -18 -10 -6 -8 -11 25
-73 16 -32 16 -34 -1 -53 -9 -10 -12 -19 -6 -19 6 0 12 5 14 12 3 7 12 4 27
-11 l22 -22 -22 -20 c-27 -23 -36 -25 -18 -3 7 9 14 22 15 30 3 16 -22 19 -31
4 -3 -5 -15 -10 -26 -10 -11 0 -17 5 -14 10 3 6 0 10 -9 10 -9 0 -22 24 -36
64 -25 76 -20 136 16 207 41 82 148 153 214 143 14 -3 36 -6 50 -8z m1272 -41
c23 -15 47 -45 64 -80 22 -47 26 -64 21 -107 -13 -104 -74 -179 -163 -199 -62
-14 -105 3 -159 62 -30 34 -39 38 -67 33 -25 -4 -29 -3 -18 5 13 9 13 11 -2
11 -29 0 -21 18 10 23 25 4 25 4 -5 6 -34 1 -47 20 -15 22 15 1 15 2 -1 6 -16
4 -18 12 -13 46 3 23 11 44 16 45 6 2 7 8 4 13 -3 6 6 8 23 4 26 -5 27 -5 6 6
-13 7 -23 16 -23 21 0 5 9 4 19 -2 33 -17 47 -11 21 10 l-25 20 28 -10 c25 -9
40 2 17 13 -6 3 -5 4 2 3 7 -2 22 5 34 15 67 61 165 76 226 34z m218 15 c0 -5
-13 -10 -30 -10 -16 0 -30 5 -30 10 0 6 14 10 30 10 17 0 30 -4 30 -10z m-17
-37 c-7 -2 -21 -2 -30 0 -10 3 -4 5 12 5 17 0 24 -2 18 -5z m-754 -36 c-1 -6
-5 -23 -10 -37 l-9 -25 4 27 c2 19 -2 28 -14 31 -25 6 -36 -4 -43 -39 -7 -36
0 -49 20 -33 10 9 13 8 13 -1 0 -10 3 -10 14 -1 11 9 15 9 19 -1 4 -10 7 -10
15 1 8 11 12 10 21 -5 6 -11 11 -13 11 -6 0 6 9 12 20 12 11 0 20 5 20 10 0 6
7 10 16 10 8 0 13 -4 10 -8 -2 -4 -1 -14 5 -22 6 -10 9 -11 9 -2 0 6 5 12 10
12 6 0 10 -16 10 -35 0 -19 5 -35 11 -35 6 0 8 -9 4 -21 -6 -18 7 -35 72 -98
79 -76 119 -121 142 -157 12 -18 12 -18 8 4 -8 33 0 27 23 -20 20 -42 28 -75
10 -48 -18 28 -21 1 -6 -56 18 -70 37 -221 31 -249 -2 -11 -4 -33 -5 -50 l-2
-30 -9 33 c-7 24 -7 38 2 48 7 8 8 25 4 41 -4 16 -9 45 -11 67 -5 35 -14 86
-28 145 -19 83 -105 202 -200 279 -26 21 -137 68 -176 76 -68 12 -133 33 -123
39 12 8 102 2 133 -8 11 -3 20 -2 20 3 0 23 -171 30 -259 11 -37 -8 -56 -18
-70 -38 -11 -15 -55 -48 -98 -73 -84 -49 -189 -151 -222 -216 -70 -137 -119
-367 -93 -439 11 -33 0 -63 -24 -63 -12 0 -13 6 -7 23 8 23 9 51 5 187 -2 77
-4 83 -17 66 -20 -26 -19 -10 4 74 11 39 17 68 12 66 -4 -3 -12 4 -19 15 -7
11 -8 19 -2 19 5 0 10 -4 10 -10 0 -5 7 -10 16 -10 9 0 14 6 11 13 -2 6 12 26
33 42 20 17 51 48 68 70 64 83 147 158 210 188 35 17 77 44 93 60 34 33 78 46
164 47 l60 1 -32 14 c-37 16 -42 23 -15 21 11 -1 16 5 15 19 -1 11 0 15 3 8 3
-7 12 -9 20 -6 19 7 18 23 -1 23 -8 0 -15 2 -15 4 0 2 -3 11 -6 19 -4 11 0 15
13 13 10 -2 26 0 36 3 33 12 67 11 66 -2z m-202 -54 c-3 -10 -5 -2 -5 17 0 19
2 27 5 18 2 -10 2 -26 0 -35z m30 5 c-3 -7 -5 -2 -5 12 0 14 2 19 5 13 2 -7 2
-19 0 -25z m-1437 -27 c0 -55 -15 -59 -16 -5 0 24 3 44 8 44 4 0 8 -18 8 -39z
m1147 17 c-3 -8 -6 -5 -6 6 -1 11 2 17 5 13 3 -3 4 -12 1 -19z m-206 -40 c20
-25 25 -43 9 -33 -5 3 -10 1 -10 -4 0 -6 -4 -11 -10 -11 -5 0 -9 10 -7 22 1
12 -3 23 -10 23 -6 0 -15 4 -20 9 -5 5 -3 6 5 2 6 -4 12 -2 12 3 0 17 10 13
31 -11z m444 12 c3 -6 -1 -7 -9 -4 -18 7 -21 14 -7 14 6 0 13 -4 16 -10z m65
-11 c0 -6 -4 -7 -10 -4 -5 3 -10 11 -10 16 0 6 5 7 10 4 6 -3 10 -11 10 -16z
m-311 -21 c0 -22 -1 -22 -10 -3 -8 17 -9 16 -6 -7 4 -29 -18 -47 -27 -22 -3 9
-1 12 4 9 6 -3 10 -1 10 4 0 6 -4 11 -10 11 -5 0 -7 7 -4 15 10 25 44 19 43
-7z m-1139 -47 c0 -6 -4 -13 -10 -16 -5 -3 -10 1 -10 9 0 9 5 16 10 16 6 0 10
-4 10 -9z m803 -23 c6 -23 1 -38 -13 -38 -12 0 -23 37 -15 50 10 16 22 11 28
-12z m1487 -36 c-7 -3 -8 -8 -1 -16 10 -12 -3 -323 -14 -334 -8 -8 -8 22 -4
252 2 122 4 137 16 120 9 -12 10 -20 3 -22z m-714 3 c14 -13 12 -15 -15 -15
-23 0 -29 4 -25 15 4 8 10 15 16 15 5 0 16 -7 24 -15z m164 -31 c19 -13 46
-34 60 -45 24 -21 24 -21 -10 0 -19 12 -59 33 -87 46 -29 13 -53 27 -53 31 0
12 55 -7 90 -32z m-1040 -84 c-8 -5 -19 -10 -25 -10 -5 0 -3 5 5 10 8 5 20 10
25 10 6 0 3 -5 -5 -10z m-710 -41 c0 -16 -4 -28 -9 -25 -8 5 -3 56 5 56 2 0 4
-14 4 -31z m2109 -15 c6 -15 9 -29 7 -32 -3 -3 -10 6 -15 19 -5 13 -10 18 -10
11 -1 -15 -31 -49 -31 -35 0 5 7 18 15 29 8 12 11 24 8 28 -3 3 -2 6 4 6 5 0
15 -12 22 -26z m-2189 7 c0 -6 -4 -13 -10 -16 -5 -3 -10 1 -10 9 0 9 5 16 10
16 6 0 10 -4 10 -9z m2143 -6 c-3 -9 -8 -14 -10 -11 -3 3 -2 9 2 15 9 16 15
13 8 -4z m-1894 -242 c1 -119 0 -215 -3 -212 -2 2 -6 76 -9 164 -3 88 -8 181
-10 208 -3 46 -1 57 14 57 4 0 7 -98 8 -217z m485 115 c-30 -100 -48 -138 -33
-67 12 58 51 170 57 164 2 -2 -8 -46 -24 -97z m-758 67 c-14 -14 -16 -14 -16
-2 0 9 6 17 13 20 19 7 21 -1 3 -18z m2214 4 c0 -6 -4 -7 -10 -4 -5 3 -10 11
-10 16 0 6 5 7 10 4 6 -3 10 -11 10 -16z m-1290 -12 c-16 -14 -24 -30 -22 -44
2 -12 -2 -30 -7 -40 -9 -15 -10 -14 -5 8 8 36 -13 47 -26 15 -5 -14 -15 -26
-22 -26 -9 0 -10 2 -2 8 6 4 15 22 19 41 5 24 10 30 16 20 6 -10 9 -11 9 -1 0
6 6 12 14 12 7 0 19 7 26 15 7 8 15 15 19 15 3 0 -5 -11 -19 -23z m1257 -9
c-3 -8 -6 -5 -6 6 -1 11 2 17 5 13 3 -3 4 -12 1 -19z m-2470 -20 c-3 -7 -5 -2
-5 12 0 14 2 19 5 13 2 -7 2 -19 0 -25z m1254 -19 c-12 -11 -21 -15 -21 -9 0
14 34 48 39 37 2 -5 -6 -17 -18 -28z m-854 -11 c-3 -8 -6 -5 -6 6 -1 11 2 17
5 13 3 -3 4 -12 1 -19z m2040 -20 c-3 -7 -5 -2 -5 12 0 14 2 19 5 13 2 -7 2
-19 0 -25z m-70 0 c-3 -8 -6 -5 -6 6 -1 11 2 17 5 13 3 -3 4 -12 1 -19z
m-1140 -20 c-3 -8 -6 -5 -6 6 -1 11 2 17 5 13 3 -3 4 -12 1 -19z m694 -23 c14
9 11 -21 -4 -34 -18 -14 -27 -4 -27 29 0 33 14 49 18 21 2 -12 8 -19 13 -16z
m526 -12 c-3 -10 -5 -4 -5 12 0 17 2 24 5 18 2 -7 2 -21 0 -30z m-1323 -15
c-2 -23 -6 -44 -9 -46 -6 -6 -4 45 2 71 8 30 11 18 7 -25z m41 12 c-4 -12 -9
-19 -12 -17 -3 3 -2 15 2 27 4 12 9 19 12 17 3 -3 2 -15 -2 -27z m52 -2 c-3
-8 -6 -5 -6 6 -1 11 2 17 5 13 3 -3 4 -12 1 -19z m1459 -120 c-3 -73 -5 -162
-5 -197 -1 -35 -4 -62 -7 -58 -7 7 -5 367 2 379 13 21 15 -1 10 -124z m-289
100 c-3 -8 -6 -5 -6 6 -1 11 2 17 5 13 3 -3 4 -12 1 -19z m110 -30 c-2 -13 -4
-5 -4 17 -1 22 1 32 4 23 2 -10 2 -28 0 -40z m41 -3 c0 -16 -2 -15 -8 5 -11
34 -11 60 0 35 5 -11 8 -29 8 -40z m-1154 20 c-4 -8 -8 -15 -10 -15 -2 0 -4 7
-4 15 0 8 4 15 10 15 5 0 7 -7 4 -15z m-694 -26 c0 -5 5 -7 10 -4 7 4 10 -59
9 -182 -1 -103 -4 -178 -6 -165 -7 33 -20 27 -15 -8 2 -16 8 -27 13 -24 5 3 9
-10 9 -28 0 -21 -3 -28 -9 -20 -5 8 -11 -30 -15 -93 -4 -59 -3 -112 2 -119 5
-6 4 -21 -4 -35 -10 -20 -13 0 -16 130 -4 192 0 239 18 239 22 0 17 47 -5 53
-17 4 -19 15 -20 102 -1 105 6 165 20 165 5 0 9 -5 9 -11z m1807 -91 c-2 -13
-4 -3 -4 22 0 25 2 35 4 23 2 -13 2 -33 0 -45z m-40 30 c-3 -8 -6 -5 -6 6 -1
11 2 17 5 13 3 -3 4 -12 1 -19z m-1094 -105 c3 -55 2 -93 -4 -93 -5 0 -9 43
-9 97 0 53 2 94 4 92 2 -2 6 -46 9 -96z m1168 50 c-4 -28 -6 -32 -9 -15 -3 22
3 52 11 52 1 0 1 -17 -2 -37z m-146 -39 c-3 -19 -10 -32 -14 -30 -5 3 -3 27 3
53 12 53 22 32 11 -23z m-206 38 c26 6 36 -29 23 -79 -19 -68 -44 -108 -70
-109 -22 -1 -50 31 -34 38 4 2 16 30 27 63 11 33 25 60 32 60 6 0 15 3 19 8 4
4 0 7 -9 7 -10 0 -17 8 -17 18 0 13 2 14 9 4 4 -7 13 -12 20 -10z m-519 -36
c0 -13 12 -41 26 -62 29 -42 46 -146 25 -158 -11 -7 -65 26 -89 54 -48 56 -56
172 -13 183 39 11 51 7 51 -17z m-1250 -110 c0 -101 -3 -125 -15 -130 -11 -4
-15 2 -15 22 0 21 2 24 10 12 7 -10 10 23 10 103 0 64 2 117 5 117 3 0 5 -56
5 -124z m-20 63 c0 -6 -4 -7 -10 -4 -5 3 -10 11 -10 16 0 6 5 7 10 4 6 -3 10
-11 10 -16z m-1 -71 c-1 -48 -2 -50 -11 -25 -9 25 -4 77 7 77 3 0 5 -24 4 -52z
m1918 -10 c-3 -7 -5 -2 -5 12 0 14 2 19 5 13 2 -7 2 -19 0 -25z m86 -9 c-8 -8
-13 -7 -18 2 -5 8 -4 10 3 5 7 -4 12 -2 12 5 0 7 3 9 7 6 4 -4 2 -12 -4 -18z
m-323 -35 c0 -8 -5 -12 -10 -9 -6 4 -8 11 -5 16 9 14 15 11 15 -7z m30 -10 c0
-22 -16 -17 -17 6 -1 11 2 18 8 15 5 -4 9 -13 9 -21z m570 -14 c0 -5 -4 -10
-10 -10 -5 0 -10 5 -10 10 0 6 5 10 10 10 6 0 10 -4 10 -10z m-579 -29 c-6
-10 -23 -26 -38 -36 -25 -16 -24 -14 7 18 40 42 45 44 31 18z m-658 -51 c-2
-2 -8 2 -12 9 -5 8 -14 10 -22 6 -9 -6 -11 -3 -6 9 4 10 7 23 7 29 0 7 8 -1
19 -18 10 -16 16 -32 14 -35z m605 41 c3 -8 -1 -12 -9 -9 -7 2 -15 10 -17 17
-3 8 1 12 9 9 7 -2 15 -10 17 -17z m619 -3 c-3 -8 -6 -5 -6 6 -1 11 2 17 5 13
3 -3 4 -12 1 -19z m-647 -8 c8 -16 8 -18 -4 -14 -17 6 -30 34 -16 34 5 0 14
-9 20 -20z m-35 -9 c3 -5 2 -12 -3 -15 -5 -3 -9 1 -9 9 0 17 3 19 12 6z
m-1838 -33 c-3 -7 -5 -2 -5 12 0 14 2 19 5 13 2 -7 2 -19 0 -25z m1793 -10 c0
-6 -6 -5 -15 2 -8 7 -15 14 -15 16 0 2 7 1 15 -2 8 -4 15 -11 15 -16z m-470
-22 c14 -3 26 -5 28 -5 1 -1 -3 -11 -9 -23 -9 -19 -9 -21 2 -10 18 17 30 15
23 -3 -9 -22 -29 -18 -47 8 -12 17 -18 19 -27 10 -23 -21 -40 -5 -28 28 9 25
12 27 22 15 6 -9 22 -18 36 -20z m10 18 c0 -2 -7 -4 -15 -4 -8 0 -15 4 -15 10
0 5 7 7 15 4 8 -4 15 -8 15 -10z m-691 -11 c-11 -13 -11 -17 -1 -20 6 -3 12
-12 12 -20 0 -13 -3 -13 -15 -3 -18 15 -19 32 -3 48 18 18 23 15 7 -5z m-72
-15 c-3 -8 -6 -5 -6 6 -1 11 2 17 5 13 3 -3 4 -12 1 -19z m1950 0 c-3 -8 -6
-5 -6 6 -1 11 2 17 5 13 3 -3 4 -12 1 -19z m-2700 -30 c-3 -8 -6 -5 -6 6 -1
11 2 17 5 13 3 -3 4 -12 1 -19z m2241 -6 c-102 -87 -209 -136 -324 -147 -79
-8 -204 12 -265 42 -60 29 -100 64 -89 78 5 6 7 15 3 19 -4 4 0 4 10 0 9 -3
14 -10 11 -15 -3 -5 5 -9 16 -9 13 0 24 -8 27 -19 11 -43 168 -86 285 -78 66
4 94 12 161 45 45 22 100 56 122 75 22 20 48 36 58 37 13 0 10 -7 -15 -28z
m-1796 -39 c-7 -35 -11 -28 -10 20 0 28 3 36 8 23 3 -11 5 -30 2 -43z m145 25
c-3 -7 -5 -2 -5 12 0 14 2 19 5 13 2 -7 2 -19 0 -25z m2113 -4 c0 -8 -5 -12
-10 -9 -6 4 -8 11 -5 16 9 14 15 11 15 -7z m-2716 -10 c16 -42 -10 -94 -47
-94 -16 0 -18 5 -11 32 7 32 33 77 45 78 4 0 10 -7 13 -16z m1560 -38 c27 -21
67 -46 88 -57 22 -11 38 -23 35 -25 -7 -7 -63 22 -103 52 -17 13 -37 24 -44
24 -19 0 -50 30 -50 48 0 10 4 12 13 5 6 -6 34 -27 61 -47z m186 -26 c0 -5 -2
-10 -4 -10 -3 0 -8 5 -11 10 -3 6 -1 10 4 10 6 0 11 -4 11 -10z m-1720 -35 c0
-8 5 -26 10 -40 9 -24 11 -25 26 -10 18 18 30 13 18 -7 -4 -7 -7 -30 -5 -51 2
-23 -1 -37 -7 -33 -5 3 -7 18 -4 32 3 19 1 25 -7 20 -6 -4 -9 -12 -6 -17 4 -5
-3 -9 -13 -9 -14 0 -21 9 -26 31 -10 49 -7 111 4 104 6 -3 10 -12 10 -20z
m427 -67 c-2 -18 -4 -4 -4 32 0 36 2 50 4 33 2 -18 2 -48 0 -65z m-17 72 c0
-5 -4 -10 -10 -10 -5 0 -10 5 -10 10 0 6 5 10 10 10 6 0 10 -4 10 -10z m1290
-40 c13 -8 13 -10 -2 -10 -9 0 -20 5 -23 10 -8 13 5 13 25 0z m-1298 -56 c-7
-31 -11 -35 -17 -21 -7 18 11 75 21 65 2 -3 0 -23 -4 -44z m316 -55 c1 8 5 11
8 8 9 -8 -16 -38 -25 -32 -10 6 -12 75 -3 89 4 6 10 -9 13 -34 3 -25 7 -39 7
-31z m1705 20 c19 -24 21 -35 8 -44 -5 -3 -12 3 -16 14 -4 13 -19 22 -45 26
-36 6 -50 22 -34 37 10 11 69 -11 87 -33z m-1996 -1 c-3 -8 -6 -5 -6 6 -1 11
2 17 5 13 3 -3 4 -12 1 -19z m0 -245 c-1 -43 -3 -10 -3 72 0 83 2 118 3 78 2
-40 2 -107 0 -150z m300 135 c-2 -13 -4 -3 -4 22 0 25 2 35 4 23 2 -13 2 -33
0 -45z m368 27 c-16 -13 -33 -24 -36 -25 -4 0 -9 -10 -13 -22 -4 -18 -8 -20
-18 -10 -9 9 -5 19 22 47 19 19 43 35 54 35 19 0 18 -3 -9 -25z m-995 5 c0 -5
-2 -10 -4 -10 -3 0 -8 5 -11 10 -3 6 -1 10 4 10 6 0 11 -4 11 -10z m740 -26
c0 -8 -4 -12 -10 -9 -5 3 -10 13 -10 21 0 8 5 12 10 9 6 -3 10 -13 10 -21z
m-1975 5 c4 -6 -1 -16 -11 -24 -23 -16 -25 -15 -17 13 6 24 18 28 28 11z
m1838 -46 c-5 -41 -3 -54 5 -49 9 5 12 -11 12 -58 0 -57 -2 -66 -18 -66 -17 0
-19 10 -21 101 -2 88 6 129 25 129 1 0 0 -25 -3 -57z m-856 21 c-3 -3 -12 -4
-19 -1 -8 3 -5 6 6 6 11 1 17 -2 13 -5z m155 -18 c7 -13 49 -62 93 -108 44
-47 99 -107 121 -134 97 -115 91 -110 113 -96 17 10 21 10 21 -2 0 -7 -7 -20
-16 -27 -14 -12 -20 -9 -47 21 -57 66 -92 105 -182 205 -91 100 -125 143 -125
157 0 15 9 8 22 -16z m2317 -47 c27 -10 30 -13 17 -21 -14 -8 -76 14 -76 26 0
3 -3 13 -7 23 -6 17 -5 17 13 1 11 -10 35 -23 53 -29z m-954 1 c-10 -11 -21
-17 -24 -14 -3 3 3 12 13 20 28 20 32 17 11 -6z m-185 -2 c22 8 38 8 51 1 10
-5 19 -11 19 -14 0 -2 3 -11 7 -21 4 -11 3 -15 -5 -10 -6 3 -14 1 -17 -4 -5
-8 -13 -6 -26 6 -18 16 -20 16 -39 -6 -20 -23 -20 -23 -20 -2 0 12 -7 25 -16
30 -10 6 -14 14 -9 22 6 10 9 10 15 0 6 -10 15 -10 40 -2z m204 -23 c-16 -25
-34 -33 -34 -16 0 12 29 41 41 41 5 0 2 -11 -7 -25z m245 9 c18 -13 28 -14 47
-5 34 15 105 13 127 -4 11 -7 21 -32 24 -55 6 -40 5 -42 -14 -31 -17 8 -25 6
-46 -13 l-25 -23 -5 26 c-2 14 -8 35 -12 45 -6 15 -5 17 5 11 9 -5 11 -4 6 3
-18 30 -57 -4 -72 -62 -3 -14 -10 -26 -15 -26 -5 0 -6 -8 -3 -17 5 -15 3 -15
-11 2 -9 11 -18 30 -21 42 -3 11 -14 23 -25 26 -15 4 -19 14 -19 45 0 35 7 48
30 51 3 1 16 -6 29 -15z m-725 -36 l21 -17 -21 -1 c-22 0 -35 18 -33 48 0 14
2 14 6 2 4 -8 16 -22 27 -32z m812 -65 c-3 -4 -6 -1 -6 6 0 7 -4 9 -10 6 -11
-7 -14 8 -3 19 4 3 11 -1 16 -9 5 -9 6 -19 3 -22z m-1289 -65 c-3 -8 -6 -5 -6
6 -1 11 2 17 5 13 3 -3 4 -12 1 -19z m-6 -37 c5 -134 4 -200 -2 -188 -5 8 -10
50 -13 93 -2 44 -7 86 -10 95 -5 10 -2 16 9 16 8 0 15 -7 16 -16z m440 -94
c-8 -8 -11 -5 -11 9 0 27 14 41 18 19 2 -9 -1 -22 -7 -28z m-1934 17 c-3 -3
-12 -4 -19 -1 -8 3 -5 6 6 6 11 1 17 -2 13 -5z m84 -8 c-14 -16 -83 -27 -78
-12 4 11 39 23 71 25 15 1 16 -2 7 -13z m82 -3 c-7 -2 -19 -2 -25 0 -7 3 -2 5
12 5 14 0 19 -2 13 -5z m1205 -37 c7 -8 -110 -17 -130 -10 -22 7 -22 7 -3 15
18 7 125 3 133 -5z m-1168 -6 c0 -13 -20 -13 -40 0 -12 8 -9 10 13 10 15 0 27
-4 27 -10z m-280 -10 c-8 -5 -22 -9 -30 -9 -10 0 -8 3 5 9 27 12 43 12 25 0z
m1550 -53 c0 -5 -4 -5 -10 -2 -5 3 -10 14 -10 23 0 15 2 15 10 2 5 -8 10 -19
10 -23z m1345 -7 c3 -5 -1 -10 -9 -10 -9 0 -16 5 -16 10 0 6 4 10 9 10 6 0 13
-4 16 -10z m-228 -25 c-29 -21 -89 -28 -122 -14 l-30 13 50 6 c28 4 66 7 85 8
32 1 33 0 17 -13z m-967 -25 c0 -13 -5 -18 -15 -14 -8 4 -15 12 -15 20 0 8 7
14 15 14 8 0 15 -9 15 -20z m-537 -47 c-7 -2 -19 -2 -25 0 -7 3 -2 5 12 5 14
0 19 -2 13 -5z"/>
<path d="M1564 3731 c5 -89 44 -85 44 4 0 24 -2 22 -10 -13 -11 -52 -20 -48
-30 16 l-7 47 3 -54z"/>
<path d="M1981 3354 c0 -11 3 -14 6 -6 3 7 2 16 -1 19 -3 4 -6 -2 -5 -13z"/>
<path d="M1960 2780 c0 -5 5 -10 10 -10 6 0 10 5 10 10 0 6 -4 10 -10 10 -5 0
-10 -4 -10 -10z"/>
<path d="M1956 2443 c-3 -27 -2 -61 3 -78 8 -24 9 -15 10 48 1 42 -1 77 -3 77
-2 0 -6 -21 -10 -47z"/>
<path d="M1941 1738 c0 -7 4 -22 9 -33 7 -17 9 -15 9 13 1 17 -3 32 -9 32 -5
0 -10 -6 -9 -12z"/>
<path d="M1905 3631 c-3 -5 -1 -12 5 -16 5 -3 10 1 10 9 0 18 -6 21 -15 7z"/>
<path d="M1880 3585 c0 -8 2 -15 4 -15 2 0 6 7 10 15 3 8 1 15 -4 15 -6 0 -10
-7 -10 -15z"/>
<path d="M3085 3460 c-22 -4 -44 -5 -50 -2 -5 3 -7 2 -3 -3 4 -4 1 -14 -7 -22
-8 -8 -18 -19 -22 -26 -5 -7 -33 -25 -64 -40 -123 -62 -217 -181 -271 -341
-17 -50 -21 -85 -21 -191 1 -117 3 -136 26 -187 61 -136 179 -256 289 -292 64
-21 183 -46 215 -45 25 0 26 1 8 10 -15 7 -10 8 20 4 43 -5 162 36 158 54 -1
5 12 15 30 22 18 7 37 20 44 29 7 8 13 11 13 6 0 -5 7 -3 15 4 8 7 13 15 11
19 -3 4 17 36 44 70 45 58 62 97 85 194 7 26 25 38 25 16 0 -8 4 -8 15 1 8 6
20 8 27 4 10 -6 9 -3 -1 9 -7 9 -20 17 -27 17 -18 0 -18 39 0 59 8 9 17 31 21
49 6 29 4 34 -14 39 -24 6 -27 21 -6 29 11 4 15 21 15 58 0 81 -63 202 -148
285 -37 36 -90 77 -117 90 -28 13 -62 35 -77 49 -40 36 -139 50 -233 32z
m-226 -562 c6 -38 8 -40 14 -18 4 14 18 33 31 42 20 15 26 15 42 3 36 -26 20
-275 -17 -275 -12 0 -59 76 -59 95 0 25 -17 17 -30 -15 -7 -16 -14 -30 -15
-30 -15 0 -35 15 -35 26 0 8 -6 14 -14 14 -19 0 -53 84 -48 120 4 29 27 59 72
92 20 15 25 15 37 3 8 -8 17 -34 22 -57z m381 24 c0 -20 -4 -44 -10 -52 -7
-11 -11 -9 -19 13 -13 34 -13 30 -1 62 13 35 30 22 30 -23z"/>
<path d="M3598 2628 c-30 -56 -58 -114 -58 -120 0 -10 48 39 60 63 11 20 22
79 15 79 -3 0 -10 -10 -17 -22z"/>
<path d="M3550 2410 c-12 -8 -9 -10 13 -10 16 0 26 -4 22 -10 -3 -5 -1 -10 5
-10 7 0 9 7 6 16 -3 9 -6 18 -6 20 0 7 -25 4 -40 -6z"/>
<path d="M3505 2361 c4 -8 2 -17 -6 -22 -9 -6 -10 -9 -2 -9 19 0 27 21 13 33
-10 9 -11 9 -5 -2z"/>
<path d="M3470 2352 c0 -5 -18 -17 -40 -28 -22 -10 -40 -23 -40 -27 0 -5 18 2
41 15 44 25 69 48 50 48 -6 0 -11 -4 -11 -8z"/>
<path d="M3695 3233 c9 -36 23 -53 54 -64 16 -6 28 -6 35 1 7 7 4 10 -10 10
-24 0 -48 24 -58 58 -11 32 -30 28 -21 -5z"/>
<path d="M3731 3243 c-1 -23 23 -53 42 -53 6 0 3 6 -6 13 -9 6 -21 23 -26 37
-9 23 -10 24 -10 3z"/>
<path d="M1315 2299 c-4 -6 -3 -15 3 -21 6 -6 11 -4 15 6 7 18 -9 31 -18 15z"/>
<path d="M1250 2282 c0 -10 7 -27 15 -38 16 -21 20 -8 9 34 -8 26 -24 29 -24
4z"/>
<path d="M1321 2090 c0 -8 6 -28 14 -45 l14 -30 -6 30 c-7 38 -22 68 -22 45z"/>
<path d="M1530 2520 c0 -11 4 -20 9 -20 5 0 7 9 4 20 -3 11 -7 20 -9 20 -2 0
-4 -9 -4 -20z"/>
<path d="M3641 2249 c-42 -25 -61 -44 -61 -59 0 -6 -4 -9 -9 -6 -5 3 -8 0 -8
-7 1 -6 -2 -33 -7 -59 -10 -60 5 -109 49 -152 58 -58 139 -55 202 6 18 17 33
28 33 22 0 -5 9 5 20 23 15 26 18 41 11 80 -21 136 -134 211 -230 152z m120
-72 c41 -31 29 -121 -20 -156 -36 -26 -52 -26 -84 -1 -48 38 -45 110 7 152 24
20 74 23 97 5z"/>
<path d="M3688 2153 c-23 -6 -41 -59 -28 -84 21 -39 90 -35 98 5 10 47 -27 88
-70 79z"/>
<path d="M3198 2113 c6 -2 18 -2 25 0 6 3 1 5 -13 5 -14 0 -19 -2 -12 -5z"/>
<path d="M1935 1341 c-3 -5 -1 -12 5 -16 5 -3 10 1 10 9 0 18 -6 21 -15 7z"/>
</g>
</svg>
